<svg xmlns="http://www.w3.org/2000/svg" viewBox="0 0 281 281"><defs><style>.cls-1,.cls-2,.cls-3{fill:none;}.cls-1,.cls-2,.cls-3,.cls-4{stroke:#878686;stroke-miterlimit:10;}.cls-2{stroke-width:1.75px;}.cls-3{stroke-width:1.5px;}.cls-4{fill:#fff;stroke-width:2px;}</style></defs><title>資產 8</title><g id="圖層_2" data-name="圖層 2"><g id="圖層_2-2" data-name="圖層 2"><rect class="cls-1" x="0.5" y="0.5" width="280" height="280" rx="12" ry="12"/><path class="cls-2" d="M179.41,102.34H142.25a5.68,5.68,0,0,1-5.68-5.68V59.5m0,0H66.18a5.68,5.68,0,0,0-5.68,5.68V217.32A5.68,5.68,0,0,0,66.18,223H173.73a5.68,5.68,0,0,0,5.68-5.68v-115Z"/><line class="cls-3" x1="69.24" y1="84.86" x2="136.57" y2="84.86"/><line class="cls-3" x1="69.68" y1="109.16" x2="169.35" y2="109.16"/><line class="cls-3" x1="69.68" y1="133.47" x2="169.35" y2="133.47"/><line class="cls-3" x1="69.68" y1="157.77" x2="169.35" y2="157.77"/><line class="cls-3" x1="69.68" y1="182.08" x2="169.35" y2="182.08"/><line class="cls-3" x1="69.68" y1="206.39" x2="169.35" y2="206.39"/><path class="cls-4" d="M222.69,101.33V118.6a4.12,4.12,0,0,1-4.11,4.11H197.2v20.55a4.12,4.12,0,0,1-4.11,4.11H175.83a4.12,4.12,0,0,1-4.11-4.11V122.71H151.17a4.12,4.12,0,0,1-4.11-4.11V101.33a4.12,4.12,0,0,1,4.11-4.11h20.55V75.85a4.12,4.12,0,0,1,4.11-4.11h17.26a4.12,4.12,0,0,1,4.11,4.11V97.22h21.37A4.12,4.12,0,0,1,222.69,101.33Z"/></g></g></svg>